<?xml version="1.0" encoding="UTF-8" standalone="no"?>
<!DOCTYPE svg PUBLIC "-//W3C//DTD SVG 1.1//EN"
 "http://www.w3.org/Graphics/SVG/1.1/DTD/svg11.dtd">
<!-- Generated by graphviz version 12.2.1 (20241206.2353)
 -->
<!-- Pages: 1 -->
<svg width="1877pt" height="481pt"
 viewBox="0.00 0.00 1877.05 481.34" xmlns="http://www.w3.org/2000/svg" xmlns:xlink="http://www.w3.org/1999/xlink">
<g id="graph0" class="graph" transform="scale(1 1) rotate(0) translate(4 477.34)">
<polygon fill="white" stroke="none" points="-4,4 -4,-477.34 1873.05,-477.34 1873.05,4 -4,4"/>
<!-- Bedroom -->
<g id="node1" class="node">
<title>Bedroom</title>
<ellipse fill="#b2dfee" stroke="#b2dfee" cx="1096.77" cy="-447.89" rx="151.32" ry="25.46"/>
<text text-anchor="start" x="1069.77" y="-449.59" font-family="Times,serif" font-weight="bold" font-size="14.00">Bedroom</text>
<text text-anchor="start" x="997.77" y="-435.59" font-family="Times,serif" font-size="14.00">You are in your bedroom. It is dark.</text>
</g>
<!-- Hallway -->
<g id="node2" class="node">
<title>Hallway</title>
<ellipse fill="#b2dfee" stroke="#b2dfee" cx="1096.77" cy="-324.68" rx="283.9" ry="45.25"/>
<text text-anchor="start" x="1072.39" y="-340.38" font-family="Times,serif" font-weight="bold" font-size="14.00">Hallway</text>
<text text-anchor="start" x="904.02" y="-326.38" font-family="Times,serif" font-size="14.00">You are in the hallway. Ahead is the living room and above is an attic.</text>
<text text-anchor="start" x="1035.64" y="-312.38" font-family="Times,serif" font-size="14.00">You see: An attic door</text>
<text text-anchor="start" x="1050.27" y="-298.38" font-family="Times,serif" font-style="italic" font-size="14.00">unlock attic door</text>
</g>
<!-- Bedroom&#45;&gt;Hallway -->
<g id="edge1" class="edge">
<title>Bedroom&#45;&gt;Hallway</title>
<path fill="none" stroke="black" d="M1079.01,-422.32C1075.82,-416.7 1072.97,-410.56 1071.27,-404.43 1069.18,-396.89 1069.13,-389 1070.35,-381.25"/>
<polygon fill="black" stroke="black" points="1073.76,-382.05 1072.61,-371.52 1066.94,-380.46 1073.76,-382.05"/>
<text text-anchor="middle" x="1087.02" y="-391.13" font-family="Times,serif" font-size="14.00">North</text>
</g>
<!-- Hallway&#45;&gt;Bedroom -->
<g id="edge2" class="edge">
<title>Hallway&#45;&gt;Bedroom</title>
<path fill="none" stroke="black" d="M1102.44,-370.23C1103.23,-381.4 1103.55,-393.35 1102.77,-404.43 1102.62,-406.6 1102.42,-408.83 1102.19,-411.08"/>
<polygon fill="black" stroke="black" points="1098.75,-410.4 1101.03,-420.75 1105.7,-411.24 1098.75,-410.4"/>
<text text-anchor="middle" x="1118.97" y="-391.13" font-family="Times,serif" font-size="14.00">South</text>
</g>
<!-- Living Room -->
<g id="node3" class="node">
<title>Living Room</title>
<ellipse fill="#b2dfee" stroke="#b2dfee" cx="507.77" cy="-165.17" rx="342.77" ry="45.25"/>
<text text-anchor="start" x="469.52" y="-180.87" font-family="Times,serif" font-weight="bold" font-size="14.00">Living Room</text>
<text text-anchor="start" x="273.39" y="-166.87" font-family="Times,serif" font-size="14.00">You are in the living room. To the left is the kitchen. Ahead is a door leading outside.</text>
<text text-anchor="start" x="274.52" y="-152.87" font-family="Times,serif" font-size="14.00">You see: A rusty key, could be used to unlock somethingThe front door, leads outside</text>
<text text-anchor="start" x="462.77" y="-138.87" font-family="Times,serif" font-style="italic" font-size="14.00">break front door</text>
</g>
<!-- Hallway&#45;&gt;Living Room -->
<g id="edge3" class="edge">
<title>Hallway&#45;&gt;Living Room</title>
<path fill="none" stroke="black" d="M953.06,-285.25C867.08,-262.25 757.62,-232.98 668.75,-209.21"/>
<polygon fill="black" stroke="black" points="669.76,-205.86 659.2,-206.66 667.95,-212.63 669.76,-205.86"/>
<text text-anchor="middle" x="870.77" y="-239.87" font-family="Times,serif" font-size="14.00">North</text>
</g>
<!-- Attic -->
<g id="node4" class="node">
<title>Attic</title>
<ellipse fill="#b2dfee" stroke="#b2dfee" cx="1368.77" cy="-165.17" rx="500.28" ry="45.25"/>
<text text-anchor="start" x="1354.52" y="-180.87" font-family="Times,serif" font-weight="bold" font-size="14.00">Attic</text>
<text text-anchor="start" x="1023.02" y="-166.87" font-family="Times,serif" font-size="14.00">You are in the attic. A headless corpse sits in the corner, with a sledgehammer next to it. There is a fragile window in the attic.</text>
<text text-anchor="start" x="1122.77" y="-152.87" font-family="Times,serif" font-size="14.00">You see: A sledgehammer; may be useful for breaking through sturdy thingsAttic window</text>
<text text-anchor="start" x="1321.89" y="-138.87" font-family="Times,serif" font-style="italic" font-size="14.00">jump out window</text>
</g>
<!-- Hallway&#45;&gt;Attic -->
<g id="edge4" class="edge">
<title>Hallway&#45;&gt;Attic</title>
<path fill="none" stroke="black" stroke-dasharray="1,5" d="M1138.78,-279.63C1157.36,-261.97 1180.25,-242.51 1203.52,-228.42 1211.81,-223.4 1220.57,-218.67 1229.56,-214.24"/>
<polygon fill="black" stroke="black" points="1230.91,-217.48 1238.43,-210.01 1227.89,-211.16 1230.91,-217.48"/>
<text text-anchor="middle" x="1255.64" y="-248.12" font-family="Times,serif" font-size="14.00">Up</text>
<text text-anchor="middle" x="1255.64" y="-231.62" font-family="Times,serif" font-size="14.00">The attic is locked.</text>
</g>
<!-- Living Room&#45;&gt;Hallway -->
<g id="edge5" class="edge">
<title>Living Room&#45;&gt;Hallway</title>
<path fill="none" stroke="black" d="M757.01,-196.58C802.03,-204.92 848.18,-215.38 890.77,-228.42 930.2,-240.5 971.83,-258.62 1007.26,-275.83"/>
<polygon fill="black" stroke="black" points="1005.69,-278.96 1016.2,-280.22 1008.77,-272.67 1005.69,-278.96"/>
<text text-anchor="middle" x="987.93" y="-239.87" font-family="Times,serif" font-size="14.00">South</text>
</g>
<!-- Outside -->
<g id="node5" class="node">
<title>Outside</title>
<ellipse fill="#b2dfee" stroke="#b2dfee" cx="198.77" cy="-25.46" rx="71.77" ry="25.46"/>
<text text-anchor="start" x="175.89" y="-27.16" font-family="Times,serif" font-weight="bold" font-size="14.00">Outside</text>
<text text-anchor="start" x="156.02" y="-13.16" font-family="Times,serif" font-size="14.00">You are outside</text>
</g>
<!-- Living Room&#45;&gt;Outside -->
<g id="edge6" class="edge">
<title>Living Room&#45;&gt;Outside</title>
<path fill="none" stroke="black" stroke-dasharray="1,5" d="M208.87,-142.71C111.82,-132.68 24.94,-119.1 9.77,-101.91 -26.59,-60.72 50.96,-41.73 117.45,-33.17"/>
<polygon fill="black" stroke="black" points="117.84,-36.65 127.35,-31.97 117,-29.7 117.84,-36.65"/>
<text text-anchor="middle" x="239.27" y="-88.61" font-family="Times,serif" font-size="14.00">Out</text>
<text text-anchor="middle" x="239.27" y="-72.11" font-family="Times,serif" font-size="14.00">The front door is bolted shut. You might be able to break it open with enough force.</text>
</g>
<!-- Kitchen -->
<g id="node6" class="node">
<title>Kitchen</title>
<ellipse fill="#b2dfee" stroke="#b2dfee" cx="549.77" cy="-25.46" rx="96.7" ry="25.46"/>
<text text-anchor="start" x="526.52" y="-27.16" font-family="Times,serif" font-weight="bold" font-size="14.00">Kitchen</text>
<text text-anchor="start" x="489.39" y="-13.16" font-family="Times,serif" font-size="14.00">You are in the kitchen</text>
</g>
<!-- Living Room&#45;&gt;Kitchen -->
<g id="edge7" class="edge">
<title>Living Room&#45;&gt;Kitchen</title>
<path fill="none" stroke="black" d="M513.25,-119.74C516.04,-103.45 520.14,-85.05 526.02,-68.91 526.95,-66.37 528.01,-63.79 529.17,-61.24"/>
<polygon fill="black" stroke="black" points="532.29,-62.83 533.64,-52.32 526.03,-59.69 532.29,-62.83"/>
<text text-anchor="middle" x="539.89" y="-80.36" font-family="Times,serif" font-size="14.00">West</text>
</g>
<!-- Attic&#45;&gt;Hallway -->
<g id="edge8" class="edge">
<title>Attic&#45;&gt;Hallway</title>
<path fill="none" stroke="black" d="M1349,-210.63C1338.98,-228.69 1325.2,-248.33 1307.77,-261.42 1296.92,-269.56 1285.03,-276.65 1272.58,-282.8"/>
<polygon fill="black" stroke="black" points="1271.42,-279.48 1263.86,-286.9 1274.4,-285.82 1271.42,-279.48"/>
<text text-anchor="middle" x="1353.44" y="-239.87" font-family="Times,serif" font-size="14.00">Down</text>
</g>
<!-- Outside&#45;&gt;Living Room -->
<g id="edge9" class="edge">
<title>Outside&#45;&gt;Living Room</title>
<path fill="none" stroke="black" d="M269.69,-29.82C339.12,-34.47 438.71,-45.15 468.77,-68.91 481.4,-78.9 489.97,-93.66 495.78,-108.6"/>
<polygon fill="black" stroke="black" points="492.46,-109.71 499.04,-118.01 499.07,-107.41 492.46,-109.71"/>
<text text-anchor="middle" x="497.48" y="-80.36" font-family="Times,serif" font-size="14.00">In</text>
</g>
<!-- Kitchen&#45;&gt;Living Room -->
<g id="edge10" class="edge">
<title>Kitchen&#45;&gt;Living Room</title>
<path fill="none" stroke="black" d="M555.54,-51.18C557.97,-66.21 559.14,-85.59 553.77,-101.91 552.92,-104.5 551.91,-107.06 550.79,-109.59"/>
<polygon fill="black" stroke="black" points="547.69,-107.95 546.22,-118.45 553.91,-111.16 547.69,-107.95"/>
<text text-anchor="middle" x="569.21" y="-80.36" font-family="Times,serif" font-size="14.00">East</text>
</g>
</g>
</svg>
